<svg width="14" height="14" viewBox="0 0 14 14" fill="none" xmlns="http://www.w3.org/2000/svg">
<g clip-path="url(#clip0_52_8898)">
<path fill-rule="evenodd" clip-rule="evenodd" d="M0.818359 6.9998C0.818359 3.58597 3.58583 0.818497 6.99967 0.818497C10.4135 0.818497 13.1809 3.58597 13.1809 6.9998C13.1809 10.4136 10.4135 13.1812 6.99967 13.1812C3.58583 13.1812 0.818359 10.4136 0.818359 6.9998ZM6.99967 1.70516C4.07552 1.70516 1.70503 4.07566 1.70503 6.9998C1.70503 9.92392 4.07552 12.2945 6.99967 12.2945C9.9238 12.2945 12.2943 9.92392 12.2943 6.9998C12.2943 4.07566 9.9238 1.70516 6.99967 1.70516ZM7.69969 9.80007C7.69969 10.1867 7.38629 10.5001 6.99969 10.5001C6.61309 10.5001 6.29969 10.1867 6.29969 9.80007C6.29969 9.41348 6.61309 9.10006 6.99969 9.10006C7.38629 9.10006 7.69969 9.41348 7.69969 9.80007ZM5.64645 5.8334C5.64645 5.2007 6.19253 4.59673 6.99978 4.59673C7.80705 4.59673 8.35312 5.2007 8.35312 5.8334C8.35312 6.29183 8.10111 6.52604 7.66659 6.79001C7.6181 6.81947 7.56216 6.85195 7.50233 6.8867L7.50227 6.88674C7.33129 6.98604 7.12844 7.10384 6.97595 7.22266C6.74975 7.3989 6.48645 7.68325 6.48645 8.12006C6.48646 8.40357 6.71628 8.6334 6.99979 8.6334C7.282 8.6334 7.51102 8.40567 7.51311 8.12396L7.51361 8.12315C7.52171 8.11036 7.54569 8.08026 7.60696 8.03252C7.70169 7.95871 7.80716 7.89759 7.94771 7.81613L7.94775 7.81611C8.02103 7.77364 8.10385 7.72565 8.19964 7.66745C8.69846 7.36442 9.37976 6.86363 9.37976 5.8334C9.37976 4.59943 8.33919 3.57006 6.99978 3.57006C5.66039 3.57006 4.61978 4.59943 4.61978 5.8334C4.61978 6.11691 4.84962 6.34673 5.13312 6.34673C5.41663 6.34673 5.64645 6.11691 5.64645 5.8334Z" fill="#7E868C"/>
</g>
<defs>
<clipPath id="clip0_52_8898">
<rect width="14" height="14" fill="white"/>
</clipPath>
</defs>
</svg>
